# Blender v2.60 (sub 0) OBJ File: 'trees.blend'
# www.blender.org
mtllib treeD.mtl
o trunk
v -0.003717 -0.043092 -0.019798
v 0.013430 -0.043092 -0.009898
v 0.013430 -0.043092 0.009901
v -0.003717 -0.043092 0.019801
v -0.020865 -0.043092 0.009901
v -0.020865 -0.043092 -0.009898
v -0.003717 0.527242 -0.019798
v 0.013430 0.527242 -0.009898
v 0.013430 0.527242 0.009901
v -0.003717 0.527242 0.019801
v -0.020865 0.527242 0.009901
v -0.020865 0.527242 -0.009898
v -0.003717 -0.043092 0.000001
v -0.003717 0.527242 0.000001
vn 0.000000 -1.000000 0.000000
vn 0.000000 -0.609973 -0.792383
vn 0.686239 -0.609973 -0.396191
vn 0.000000 1.000000 0.000000
vn 0.686239 0.609973 -0.396191
vn 0.000000 0.609973 -0.792383
vn 0.686239 -0.609973 0.396191
vn 0.686239 0.609973 0.396191
vn 0.000000 -0.609973 0.792383
vn 0.000000 0.609973 0.792383
vn -0.686239 -0.609973 0.396191
vn -0.686239 0.609973 0.396191
vn -0.686239 -0.609973 -0.396191
vn -0.686239 0.609973 -0.396191
usemtl Pien
s 1
f 13//1 1//2 2//3
f 14//4 8//5 7//6
f 13//1 2//3 3//7
f 14//4 9//8 8//5
f 13//1 3//7 4//9
f 14//4 10//10 9//8
f 13//1 4//9 5//11
f 14//4 11//12 10//10
f 13//1 5//11 6//13
f 14//4 12//14 11//12
f 6//13 1//2 13//1
f 14//4 7//6 12//14
f 1//2 7//6 8//5
f 1//2 8//5 2//3
f 2//3 8//5 9//8
f 2//3 9//8 3//7
f 3//7 9//8 10//10
f 3//7 10//10 4//9
f 4//9 10//10 11//12
f 4//9 11//12 5//11
f 5//11 11//12 12//14
f 5//11 12//14 6//13
f 7//6 1//2 6//13
f 7//6 6//13 12//14
o Tree_D_TreeD
v -0.102669 1.068771 -0.103277
v -0.215765 1.034752 -0.216372
v -0.322901 0.972996 -0.323508
v -0.418551 0.882057 -0.419159
v -0.494021 0.759759 -0.494629
v -0.534006 0.627442 -0.534614
v -0.509411 0.554367 -0.510019
v -0.460502 0.505601 -0.461111
v 0.000178 1.075049 -0.000429
v 0.000610 0.505601 -0.652109
v 0.000610 0.554367 -0.721277
v 0.000610 0.627442 -0.756060
v 0.000610 0.759759 -0.699511
v 0.000609 0.882057 -0.592782
v 0.000609 0.972996 -0.457511
v 0.000609 1.034752 -0.305998
v 0.000609 1.068771 -0.146057
v 0.103888 1.068771 -0.103278
v 0.216984 1.034752 -0.216373
v 0.324120 0.972996 -0.323509
v 0.419771 0.882057 -0.419160
v 0.495240 0.759759 -0.494629
v 0.535226 0.627442 -0.534615
v 0.510631 0.554367 -0.510019
v 0.461722 0.505601 -0.461111
v 0.652721 0.505601 0.000001
v 0.721888 0.554367 0.000001
v 0.756671 0.627442 0.000001
v 0.700123 0.759759 0.000001
v 0.593393 0.882057 0.000001
v 0.458122 0.972996 0.000001
v 0.306609 1.034752 0.000001
v 0.146668 1.068771 0.000001
v 0.103889 1.068771 0.103280
v 0.216984 1.034752 0.216375
v 0.324120 0.972996 0.323511
v 0.419771 0.882057 0.419162
v 0.495240 0.759759 0.494631
v 0.535226 0.627442 0.534617
v 0.510631 0.554367 0.510022
v 0.461722 0.505602 0.461113
v 0.000610 0.505602 0.652112
v 0.000610 0.554367 0.721280
v 0.000610 0.627442 0.756062
v 0.000610 0.759759 0.699514
v 0.000610 0.882057 0.592784
v 0.000610 0.972996 0.457514
v 0.000611 1.034752 0.306000
v 0.000611 1.068771 0.146060
v -0.102668 1.068771 0.103281
v -0.215764 1.034752 0.216376
v -0.322900 0.972996 0.323512
v -0.418551 0.882057 0.419163
v -0.494020 0.759759 0.494632
v -0.534006 0.627442 0.534617
v -0.509411 0.554367 0.510022
v -0.460502 0.505602 0.461113
v 0.000610 0.504422 0.000001
v -0.651501 0.505601 0.000001
v -0.720668 0.554367 0.000001
v -0.755451 0.627442 0.000001
v -0.698903 0.759759 0.000001
v -0.592173 0.882057 0.000002
v -0.456902 0.972996 0.000002
v -0.305389 1.034752 0.000002
v -0.145448 1.068771 0.000002
vt 0.500609 0.921444
vt 0.704690 0.808987
vt 0.833039 0.868138
vt 0.739276 0.678307
vt 0.868591 0.734329
vt 0.752580 0.591531
vt 0.879017 0.645848
vt 0.761040 0.526497
vt 0.884991 0.579639
vt 0.768154 0.469661
vt 0.889686 0.521774
vt 0.774482 0.420552
vt 0.893640 0.471720
vt 0.778818 0.388849
vt 0.896245 0.439355
vt 0.783190 0.359080
vt 0.898792 0.408903
vt 1.000760 0.077548
vt 0.658303 0.300955
vt 0.654228 0.331013
vt 0.650359 0.363036
vt 0.644992 0.412665
vt 0.639322 0.470144
vt 0.633024 0.536011
vt 0.623954 0.624237
vt 0.603900 0.759562
vt 0.510111 0.738290
vt 0.512322 0.599415
vt 0.513373 0.509616
vt 0.514122 0.442641
vt 0.514811 0.384147
vt 0.515479 0.333547
vt 0.515968 0.300827
vt 0.516493 0.270036
vt 0.371953 0.290477
vt 0.375533 0.320708
vt 0.378894 0.352904
vt 0.383491 0.402787
vt 0.388278 0.460529
vt 0.393513 0.526675
vt 0.400919 0.615286
vt 0.416862 0.751611
vt 0.318905 0.795470
vt 0.287287 0.664473
vt 0.274511 0.577810
vt 0.266188 0.512868
vt 0.259068 0.456110
vt 0.252640 0.407075
vt 0.248186 0.375437
vt 0.243653 0.345748
vt 0.000760 0.077548
vt 0.127008 0.400037
vt 0.130079 0.430284
vt 0.133212 0.462446
vt 0.137950 0.512193
vt 0.143530 0.569688
vt 0.150549 0.635414
vt 0.162541 0.723076
vt 0.200608 0.854842
vt 0.024286 0.894375
vt 0.017407 0.755152
vt 0.015728 0.665122
vt 0.014823 0.598023
vt 0.014142 0.539453
vt 0.013587 0.488801
vt 0.013236 0.456043
vt 0.012901 0.425207
vt 1.012901 0.425207
vt 1.013236 0.456043
vt 1.013587 0.488801
vt 1.014142 0.539453
vt 1.014823 0.598023
vt 1.015728 0.665122
vt 1.017407 0.755152
vt 1.024286 0.894375
vn -0.000122 0.999969 -0.000122
vn -0.103458 0.989227 -0.103458
vn -0.146306 0.989227 0.000000
vn -0.221900 0.949461 -0.221900
vn -0.313822 0.949461 0.000000
vn -0.346080 0.872005 -0.346080
vn -0.489456 0.872005 0.000000
vn -0.479904 0.734397 -0.479904
vn -0.678671 0.734397 0.000000
vn -0.606006 0.515213 -0.606006
vn -0.857051 0.515213 0.000000
vn -0.706961 -0.018403 -0.706961
vn -0.999817 -0.018403 0.000000
vn -0.557298 -0.615436 -0.557298
vn -0.788171 -0.615436 0.000000
vn -0.260262 -0.929777 -0.260262
vn -0.368053 -0.929777 0.000000
vn 0.000000 -0.929777 -0.368053
vn 0.000000 -0.615436 -0.788171
vn 0.000000 -0.018403 -0.999817
vn 0.000000 0.515213 -0.857051
vn 0.000000 0.734397 -0.678671
vn 0.000000 0.872005 -0.489456
vn 0.000000 0.949461 -0.313822
vn 0.000000 0.989227 -0.146306
vn 0.103427 0.989227 -0.103397
vn 0.221900 0.949461 -0.221900
vn 0.346080 0.872005 -0.346080
vn 0.479904 0.734397 -0.479904
vn 0.606006 0.515213 -0.606006
vn 0.706961 -0.018403 -0.706961
vn 0.557298 -0.615436 -0.557298
vn 0.260262 -0.929777 -0.260262
vn 0.368053 -0.929777 0.000000
vn 0.788171 -0.615436 0.000000
vn 0.999817 -0.018403 0.000000
vn 0.857051 0.515213 0.000000
vn 0.678671 0.734397 0.000000
vn 0.489456 0.872005 0.000000
vn 0.313822 0.949461 0.000000
vn 0.146214 0.989227 0.000000
vn 0.103366 0.989227 0.103366
vn 0.221900 0.949461 0.221900
vn 0.346080 0.872005 0.346080
vn 0.479904 0.734397 0.479904
vn 0.606006 0.515213 0.606006
vn 0.706961 -0.018403 0.706961
vn 0.557298 -0.615436 0.557298
vn 0.260262 -0.929777 0.260262
vn 0.000000 -0.929777 0.368053
vn 0.000000 -0.615436 0.788171
vn 0.000000 -0.018403 0.999817
vn 0.000000 0.515213 0.857051
vn 0.000000 0.734397 0.678671
vn 0.000000 0.872005 0.489456
vn 0.000000 0.949461 0.313822
vn 0.000000 0.989227 0.146214
vn -0.103397 0.989227 0.103427
vn -0.221900 0.949461 0.221900
vn -0.346080 0.872005 0.346080
vn -0.479904 0.734397 0.479904
vn -0.606006 0.515213 0.606006
vn -0.706961 -0.018403 0.706961
vn -0.557298 -0.615436 0.557298
vn -0.260262 -0.929777 0.260262
usemtl None_tree.png
s 1
f 23/1/15 15/2/16 80/3/17
f 80/3/17 15/2/16 16/4/18
f 80/3/17 16/4/18 79/5/19
f 79/5/19 16/4/18 17/6/20
f 79/5/19 17/6/20 78/7/21
f 78/7/21 17/6/20 18/8/22
f 78/7/21 18/8/22 77/9/23
f 77/9/23 18/8/22 19/10/24
f 77/9/23 19/10/24 76/11/25
f 76/11/25 19/10/24 20/12/26
f 76/11/25 20/12/26 75/13/27
f 75/13/27 20/12/26 21/14/28
f 75/13/27 21/14/28 74/15/29
f 74/15/29 21/14/28 22/16/30
f 74/15/29 22/16/30 73/17/31
f 73/17/31 22/16/30 72/18/1
f 22/16/30 24/19/32 72/18/1
f 21/14/28 25/20/33 24/19/32
f 21/14/28 24/19/32 22/16/30
f 20/12/26 26/21/34 25/20/33
f 20/12/26 25/20/33 21/14/28
f 19/10/24 27/22/35 26/21/34
f 19/10/24 26/21/34 20/12/26
f 18/8/22 28/23/36 27/22/35
f 18/8/22 27/22/35 19/10/24
f 17/6/20 29/24/37 28/23/36
f 17/6/20 28/23/36 18/8/22
f 16/4/18 30/25/38 29/24/37
f 16/4/18 29/24/37 17/6/20
f 15/2/16 31/26/39 30/25/38
f 15/2/16 30/25/38 16/4/18
f 15/2/16 23/1/15 31/26/39
f 31/26/39 23/1/15 32/27/40
f 31/26/39 32/27/40 33/28/41
f 31/26/39 33/28/41 30/25/38
f 30/25/38 33/28/41 34/29/42
f 30/25/38 34/29/42 29/24/37
f 29/24/37 34/29/42 35/30/43
f 29/24/37 35/30/43 28/23/36
f 28/23/36 35/30/43 36/31/44
f 28/23/36 36/31/44 27/22/35
f 27/22/35 36/31/44 37/32/45
f 27/22/35 37/32/45 26/21/34
f 26/21/34 37/32/45 38/33/46
f 26/21/34 38/33/46 25/20/33
f 25/20/33 38/33/46 39/34/47
f 25/20/33 39/34/47 24/19/32
f 24/19/32 39/34/47 72/18/1
f 39/34/47 40/35/48 72/18/1
f 38/33/46 41/36/49 40/35/48
f 38/33/46 40/35/48 39/34/47
f 37/32/45 42/37/50 41/36/49
f 37/32/45 41/36/49 38/33/46
f 36/31/44 43/38/51 42/37/50
f 36/31/44 42/37/50 37/32/45
f 35/30/43 44/39/52 43/38/51
f 35/30/43 43/38/51 36/31/44
f 34/29/42 45/40/53 44/39/52
f 34/29/42 44/39/52 35/30/43
f 33/28/41 46/41/54 45/40/53
f 33/28/41 45/40/53 34/29/42
f 32/27/40 47/42/55 46/41/54
f 32/27/40 46/41/54 33/28/41
f 32/27/40 23/1/15 47/42/55
f 47/42/55 23/1/15 48/43/56
f 47/42/55 48/43/56 49/44/57
f 47/42/55 49/44/57 46/41/54
f 46/41/54 49/44/57 50/45/58
f 46/41/54 50/45/58 45/40/53
f 45/40/53 50/45/58 51/46/59
f 45/40/53 51/46/59 44/39/52
f 44/39/52 51/46/59 52/47/60
f 44/39/52 52/47/60 43/38/51
f 43/38/51 52/47/60 53/48/61
f 43/38/51 53/48/61 42/37/50
f 42/37/50 53/48/61 54/49/62
f 42/37/50 54/49/62 41/36/49
f 41/36/49 54/49/62 55/50/63
f 41/36/49 55/50/63 40/35/48
f 40/35/48 55/50/63 72/51/1
f 55/50/63 56/52/64 72/51/1
f 54/49/62 57/53/65 56/52/64
f 54/49/62 56/52/64 55/50/63
f 53/48/61 58/54/66 57/53/65
f 53/48/61 57/53/65 54/49/62
f 52/47/60 59/55/67 58/54/66
f 52/47/60 58/54/66 53/48/61
f 51/46/59 60/56/68 59/55/67
f 51/46/59 59/55/67 52/47/60
f 50/45/58 61/57/69 60/56/68
f 50/45/58 60/56/68 51/46/59
f 49/44/57 62/58/70 61/57/69
f 49/44/57 61/57/69 50/45/58
f 48/43/56 63/59/71 62/58/70
f 48/43/56 62/58/70 49/44/57
f 48/43/56 23/1/15 63/59/71
f 63/59/71 23/1/15 64/60/72
f 63/59/71 64/60/72 65/61/73
f 63/59/71 65/61/73 62/58/70
f 62/58/70 65/61/73 66/62/74
f 62/58/70 66/62/74 61/57/69
f 61/57/69 66/62/74 67/63/75
f 61/57/69 67/63/75 60/56/68
f 60/56/68 67/63/75 68/64/76
f 60/56/68 68/64/76 59/55/67
f 59/55/67 68/64/76 69/65/77
f 59/55/67 69/65/77 58/54/66
f 58/54/66 69/65/77 70/66/78
f 58/54/66 70/66/78 57/53/65
f 57/53/65 70/66/78 71/67/79
f 57/53/65 71/67/79 56/52/64
f 56/52/64 71/67/79 72/51/1
f 71/68/79 73/17/31 72/18/1
f 70/69/78 74/15/29 73/17/31
f 70/69/78 73/17/31 71/68/79
f 69/70/77 75/13/27 74/15/29
f 69/70/77 74/15/29 70/69/78
f 68/71/76 76/11/25 75/13/27
f 68/71/76 75/13/27 69/70/77
f 67/72/75 77/9/23 76/11/25
f 67/72/75 76/11/25 68/71/76
f 66/73/74 78/7/21 77/9/23
f 66/73/74 77/9/23 67/72/75
f 65/74/73 79/5/19 78/7/21
f 65/74/73 78/7/21 66/73/74
f 64/75/72 80/3/17 79/5/19
f 64/75/72 79/5/19 65/74/73
f 64/75/72 23/1/15 80/3/17
