# Blender v2.60 (sub 0) OBJ File: 'trees.blend'
# www.blender.org
mtllib treeC.mtl
o trunk
v -0.003717 -0.043092 -0.019798
v 0.013430 -0.043092 -0.009898
v 0.013430 -0.043092 0.009901
v -0.003717 -0.043092 0.019801
v -0.020865 -0.043092 0.009901
v -0.020865 -0.043092 -0.009898
v -0.003717 0.527242 -0.019798
v 0.013430 0.527242 -0.009898
v 0.013430 0.527242 0.009901
v -0.003717 0.527242 0.019801
v -0.020865 0.527242 0.009901
v -0.020865 0.527242 -0.009898
v -0.003717 -0.043092 0.000001
v -0.003717 0.527242 0.000001
vn 0.000000 -1.000000 0.000000
vn 0.000000 -0.609973 -0.792383
vn 0.686239 -0.609973 -0.396191
vn 0.000000 1.000000 0.000000
vn 0.686239 0.609973 -0.396191
vn 0.000000 0.609973 -0.792383
vn 0.686239 -0.609973 0.396191
vn 0.686239 0.609973 0.396191
vn 0.000000 -0.609973 0.792383
vn 0.000000 0.609973 0.792383
vn -0.686239 -0.609973 0.396191
vn -0.686239 0.609973 0.396191
vn -0.686239 -0.609973 -0.396191
vn -0.686239 0.609973 -0.396191
usemtl Pien
s 1
f 13//1 1//2 2//3
f 14//4 8//5 7//6
f 13//1 2//3 3//7
f 14//4 9//8 8//5
f 13//1 3//7 4//9
f 14//4 10//10 9//8
f 13//1 4//9 5//11
f 14//4 11//12 10//10
f 13//1 5//11 6//13
f 14//4 12//14 11//12
f 6//13 1//2 13//1
f 14//4 7//6 12//14
f 1//2 7//6 8//5
f 1//2 8//5 2//3
f 2//3 8//5 9//8
f 2//3 9//8 3//7
f 3//7 9//8 10//10
f 3//7 10//10 4//9
f 4//9 10//10 11//12
f 4//9 11//12 5//11
f 5//11 11//12 12//14
f 5//11 12//14 6//13
f 7//6 1//2 6//13
f 7//6 6//13 12//14
o Tree_C_TreeC
v -0.125609 1.534735 0.000001
v -1.065803 -0.146538 1.341981
v -0.048283 1.653338 -0.048244
v -0.088830 1.534735 -0.088791
v -0.242588 0.318058 -0.242549
v -0.221287 0.231990 -0.221248
v -0.171883 0.177569 -0.171844
v -0.000039 0.177569 -0.243025
v -0.000039 0.231990 -0.312893
v -0.000039 0.318058 -0.343016
v -0.000039 1.534735 -0.125570
v -0.000039 1.653338 -0.068227
v 0.048205 1.653338 -0.048244
v 0.088753 1.534735 -0.088792
v 0.242511 0.318058 -0.242549
v 0.221210 0.231990 -0.221249
v 0.171806 0.177569 -0.171845
v -0.000038 0.176816 0.000000
v 0.242987 0.177569 0.000000
v 0.312855 0.231990 0.000000
v 0.342978 0.318058 -0.000000
v 0.125532 1.534735 -0.000000
v 0.068189 1.653338 -0.000000
v 0.048206 1.653338 0.048244
v 0.088753 1.534735 0.088792
v 0.242511 0.318058 0.242549
v 0.221210 0.231989 0.221249
v 0.171806 0.177569 0.171845
v -0.000159 1.676084 -0.000121
v -0.000038 0.177569 0.243025
v -0.000038 0.231989 0.312893
v -0.000038 0.318058 0.343017
v -0.000038 1.534735 0.125571
v -0.000038 1.653338 0.068228
v -0.048282 1.653338 0.048245
v -0.088830 1.534735 0.088792
v -0.242588 0.318058 0.242550
v -0.221287 0.231989 0.221249
v -0.171883 0.177569 0.171845
v -0.243064 0.177569 0.000000
v -0.312932 0.231990 0.000000
v -0.343055 0.318058 0.000000
v -0.068266 1.653338 0.000001
vt 0.250001 0.748744
vt 0.146471 0.760117
vt 0.125065 0.748744
vt 0.125035 0.689442
vt 0.250001 0.689442
vt 0.125013 0.081104
vt 0.250000 0.081104
vt 0.125014 0.038070
vt 0.250000 0.038070
vt 0.125018 0.010859
vt 0.250000 0.010859
vt 0.251185 0.010483
vt 0.000025 0.010859
vt 0.000020 0.038070
vt 0.000018 0.081104
vt 0.000049 0.689442
vt 0.000091 0.748744
vt 1.000090 0.748744
vt 1.146471 0.760117
vt 0.875064 0.748744
vt 0.875035 0.689442
vt 1.000049 0.689442
vt 0.875013 0.081104
vt 1.000018 0.081104
vt 0.875014 0.038070
vt 1.000020 0.038070
vt 0.875018 0.010859
vt 1.000025 0.010859
vt 1.251185 0.010483
vt 0.750000 0.010859
vt 0.750000 0.038070
vt 0.750000 0.081104
vt 0.750000 0.689442
vt 0.750001 0.748744
vt 0.624937 0.748744
vt 0.624966 0.689442
vt 0.624987 0.081104
vt 0.624986 0.038070
vt 0.624982 0.010859
vt 0.499975 0.010859
vt 0.499980 0.038070
vt 0.499982 0.081104
vt 0.499952 0.689442
vt 0.499911 0.748744
vt 0.374938 0.748744
vt 0.374966 0.689442
vt 0.374988 0.081104
vt 0.374986 0.038070
vt 0.374982 0.010859
vn -0.708274 0.705924 0.000031
vn -0.000580 0.999969 -0.000580
vn -0.500870 0.705863 -0.500870
vn -0.674703 0.299112 -0.674703
vn -0.954192 0.299112 0.000000
vn -0.705069 -0.075289 -0.705069
vn -0.997131 -0.075289 0.000000
vn -0.589282 -0.552629 -0.589282
vn -0.833399 -0.552629 0.000000
vn -0.278878 -0.918912 -0.278878
vn -0.394391 -0.918912 0.000000
vn 0.000000 -0.999969 0.000000
vn 0.000000 -0.918912 -0.394391
vn 0.000000 -0.552629 -0.833399
vn 0.000000 -0.075289 -0.997131
vn 0.000000 0.299112 -0.954192
vn 0.000031 0.705924 -0.708274
vn 0.500748 0.706076 -0.500656
vn 0.674703 0.299112 -0.674703
vn 0.705069 -0.075289 -0.705069
vn 0.589282 -0.552629 -0.589282
vn 0.278878 -0.918912 -0.278878
vn 0.394391 -0.918912 0.000000
vn 0.833399 -0.552629 0.000000
vn 0.997131 -0.075289 0.000000
vn 0.954192 0.299112 0.000000
vn 0.707968 0.706229 0.000031
vn 0.500565 0.706290 0.500565
vn 0.674703 0.299112 0.674703
vn 0.705069 -0.075289 0.705069
vn 0.589282 -0.552629 0.589282
vn 0.278878 -0.918912 0.278878
vn 0.000000 -0.918912 0.394391
vn 0.000000 -0.552629 0.833399
vn 0.000000 -0.075289 0.997131
vn 0.000000 0.299112 0.954192
vn 0.000031 0.706229 0.707968
vn -0.500656 0.706076 0.500748
vn -0.674703 0.299112 0.674703
vn -0.705069 -0.075289 0.705069
vn -0.589282 -0.552629 0.589282
vn -0.278878 -0.918912 0.278878
usemtl None_tree.png
s 1
f 57/1/15 43/2/16 17/3/17
f 18/4/18 15/5/19 57/1/15
f 18/4/18 57/1/15 17/3/17
f 15/5/19 18/4/18 19/6/20
f 15/5/19 19/6/20 56/7/21
f 56/7/21 19/6/20 20/8/22
f 56/7/21 20/8/22 55/9/23
f 55/9/23 20/8/22 21/10/24
f 55/9/23 21/10/24 54/11/25
f 54/11/25 21/10/24 32/12/26
f 21/10/24 22/13/27 32/12/26
f 20/8/22 23/14/28 22/13/27
f 20/8/22 22/13/27 21/10/24
f 19/6/20 24/15/29 23/14/28
f 19/6/20 23/14/28 20/8/22
f 18/4/18 25/16/30 24/15/29
f 18/4/18 24/15/29 19/6/20
f 17/3/17 26/17/31 25/16/30
f 17/3/17 25/16/30 18/4/18
f 17/3/17 43/2/16 26/17/31
f 26/18/31 43/19/16 27/20/32
f 26/18/31 27/20/32 28/21/33
f 26/18/31 28/21/33 25/22/30
f 25/22/30 28/21/33 29/23/34
f 25/22/30 29/23/34 24/24/29
f 24/24/29 29/23/34 30/25/35
f 24/24/29 30/25/35 23/26/28
f 23/26/28 30/25/35 31/27/36
f 23/26/28 31/27/36 22/28/27
f 22/28/27 31/27/36 32/29/26
f 31/27/36 33/30/37 32/29/26
f 30/25/35 34/31/38 33/30/37
f 30/25/35 33/30/37 31/27/36
f 29/23/34 35/32/39 34/31/38
f 29/23/34 34/31/38 30/25/35
f 28/21/33 36/33/40 35/32/39
f 28/21/33 35/32/39 29/23/34
f 27/20/32 37/34/41 36/33/40
f 27/20/32 36/33/40 28/21/33
f 27/20/32 43/19/16 37/34/41
f 37/34/41 43/19/16 38/35/42
f 37/34/41 38/35/42 39/36/43
f 37/34/41 39/36/43 36/33/40
f 36/33/40 39/36/43 40/37/44
f 36/33/40 40/37/44 35/32/39
f 35/32/39 40/37/44 41/38/45
f 35/32/39 41/38/45 34/31/38
f 34/31/38 41/38/45 42/39/46
f 34/31/38 42/39/46 33/30/37
f 33/30/37 42/39/46 32/12/26
f 42/39/46 44/40/47 32/12/26
f 41/38/45 45/41/48 44/40/47
f 41/38/45 44/40/47 42/39/46
f 40/37/44 46/42/49 45/41/48
f 40/37/44 45/41/48 41/38/45
f 39/36/43 47/43/50 46/42/49
f 39/36/43 46/42/49 40/37/44
f 38/35/42 48/44/51 47/43/50
f 38/35/42 47/43/50 39/36/43
f 38/35/42 43/2/16 48/44/51
f 48/44/51 43/2/16 49/45/52
f 48/44/51 49/45/52 50/46/53
f 48/44/51 50/46/53 47/43/50
f 47/43/50 50/46/53 51/47/54
f 47/43/50 51/47/54 46/42/49
f 46/42/49 51/47/54 52/48/55
f 46/42/49 52/48/55 45/41/48
f 45/41/48 52/48/55 53/49/56
f 45/41/48 53/49/56 44/40/47
f 44/40/47 53/49/56 32/12/26
f 53/49/56 54/11/25 32/12/26
f 52/48/55 55/9/23 54/11/25
f 52/48/55 54/11/25 53/49/56
f 51/47/54 56/7/21 55/9/23
f 51/47/54 55/9/23 52/48/55
f 50/46/53 15/5/19 56/7/21
f 50/46/53 56/7/21 51/47/54
f 15/5/19 50/46/53 49/45/52
f 15/5/19 49/45/52 57/1/15
f 49/45/52 43/2/16 57/1/15
