<?xml version="1.0" encoding="UTF-8" standalone="no"?>
<!-- Created with Inkscape (http://www.inkscape.org/) -->

<svg
   xmlns:dc="http://purl.org/dc/elements/1.1/"
   xmlns:cc="http://creativecommons.org/ns#"
   xmlns:rdf="http://www.w3.org/1999/02/22-rdf-syntax-ns#"
   xmlns:svg="http://www.w3.org/2000/svg"
   xmlns="http://www.w3.org/2000/svg"
   xmlns:sodipodi="http://sodipodi.sourceforge.net/DTD/sodipodi-0.dtd"
   xmlns:inkscape="http://www.inkscape.org/namespaces/inkscape"
   width="749.92767"
   height="348.82385"
   id="svg2"
   version="1.1"
   inkscape:version="0.48.1 "
   sodipodi:docname="RoofType2_3.svg">
  <defs
     id="defs4" />
  <sodipodi:namedview
     id="base"
     pagecolor="#ffffff"
     bordercolor="#666666"
     borderopacity="1.0"
     inkscape:pageopacity="0.0"
     inkscape:pageshadow="2"
     inkscape:zoom="0.98994949"
     inkscape:cx="269.71441"
     inkscape:cy="114.19161"
     inkscape:document-units="px"
     inkscape:current-layer="layer1"
     showgrid="false"
     inkscape:window-width="1280"
     inkscape:window-height="934"
     inkscape:window-x="-4"
     inkscape:window-y="-4"
     inkscape:window-maximized="1"
     fit-margin-top="20"
     fit-margin-left="20"
     fit-margin-right="20"
     fit-margin-bottom="20" />
  <metadata
     id="metadata7">
    <rdf:RDF>
      <cc:Work
         rdf:about="">
        <dc:format>image/svg+xml</dc:format>
        <dc:type
           rdf:resource="http://purl.org/dc/dcmitype/StillImage" />
        <dc:title></dc:title>
      </cc:Work>
    </rdf:RDF>
  </metadata>
  <g
     inkscape:label="Layer 1"
     inkscape:groupmode="layer"
     id="layer1"
     transform="translate(76.066551,-52.668777)">
    <path
       style="fill:#d5d5ff;fill-opacity:1;stroke:#d5d5ff;stroke-width:1.42857146;stroke-linecap:round;stroke-linejoin:round;stroke-miterlimit:4;stroke-opacity:1;stroke-dasharray:none;stroke-dashoffset:0"
       d="m 543.14563,237.51451 c -33.17164,-18.35149 -60.43949,-33.74864 -60.59524,-34.21587 -0.20548,-0.61644 1.56356,-0.84952 6.44756,-0.84952 12.73378,0 32.67403,-0.94062 32.67403,-1.5413 0,-0.33085 -8.78769,-0.60156 -19.5282,-0.60156 l -19.52821,0 -0.79835,-1.7522 c -0.77379,-1.69827 1.13804,-3.36582 62.12182,-54.18427 l 62.92017,-52.432066 2.04924,1.022297 2.04925,1.022297 0,86.751252 0,86.75126 -2.10635,0.42127 c -1.15849,0.23169 -2.65473,1.02723 -3.32499,1.76786 -0.67026,0.74062 -1.4099,1.31516 -1.64366,1.27675 -0.23375,-0.0384 -27.56543,-15.0847 -60.73707,-33.4362 l 0,0 z"
       id="path3117"
       inkscape:connector-curvature="0"
       transform="translate(-76.066551,52.668777)" />
    <path
       style="fill:#ffd5d5;fill-opacity:1;stroke:#ffd5d5;stroke-width:1.42857146;stroke-linecap:round;stroke-linejoin:round;stroke-miterlimit:4;stroke-opacity:1;stroke-dasharray:none;stroke-dashoffset:0"
       d="m 155.7792,256.84809 -1.96301,-1.18469 -0.001,-70.17857 c -9.7e-4,-53.63262 0.19838,-70.17857 0.84555,-70.17857 0.46575,0 1.51039,-0.62138 2.32143,-1.38084 1.46919,-1.37578 1.76158,-1.22304 79.68889,41.63069 48.72052,26.79235 78.21429,43.40668 78.21429,44.05941 0,0.89178 -3.00602,1.07614 -20.17857,1.23757 -17.17757,0.16149 -20.17858,0.34563 -20.17858,1.23815 0,0.88998 2.8082,1.07723 18.58035,1.23888 l 18.58034,0.19042 -76.25892,27.34125 c -41.9424,15.0377 -76.58034,27.30295 -76.9732,27.25613 -0.39285,-0.0468 -1.59764,-0.61824 -2.67729,-1.26983 z"
       id="path3115"
       inkscape:connector-curvature="0"
       transform="translate(-76.066551,52.668777)" />
    <path
       style="fill:#ffeeaa;fill-opacity:1;stroke:#ffeeaa;stroke-width:2.85714293;stroke-linecap:round;stroke-linejoin:round;stroke-miterlimit:4;stroke-opacity:1;stroke-dasharray:none;stroke-dashoffset:0"
       d="m 154.74282,279.33445 c 0,-6.06079 0.58384,-8.64263 2.0846,-9.21853 1.14653,-0.43996 2.63345,-2.91946 3.30427,-5.50998 l 1.21966,-4.71005 76.32041,-27.40555 c 75.01549,-26.93697 76.36441,-27.35831 78.89423,-24.64285 2.94579,3.16193 5.1696,3.42072 10.09809,1.17515 3.02704,-1.37922 5.08267,-0.71625 15.66496,5.05216 6.69938,3.65183 12.51238,6.103 12.91778,5.44704 0.40542,-0.65596 -5.16714,-4.37586 -12.38344,-8.26644 l -13.12056,-7.0738 67.85715,-0.97373 c 37.32142,-0.53556 68.39464,-0.44806 69.05157,0.19443 0.65694,0.64249 -4.92645,6.22353 -12.40752,12.40231 -7.48107,6.17877 -13.64355,11.71628 -13.69443,12.30557 -0.22561,2.61372 3.35012,0.37874 15.06222,-9.41452 11.55733,-9.66385 12.84356,-10.37157 16.40587,-9.02695 2.97434,1.12269 4.6488,0.94567 7.26414,-0.76796 3.29205,-2.15703 5.27766,-1.1887 63.21879,30.83018 50.49394,27.90348 59.90188,33.59374 60.34524,36.49894 0.64176,4.20515 3.00616,7.23745 5.64332,7.23745 1.08237,0 1.96794,0.96428 1.96794,2.14286 0,1.8958 -26.26984,2.14285 -227.85714,2.14285 l -227.85715,0 0,-8.41858 z"
       id="path3109"
       inkscape:connector-curvature="0"
       transform="translate(-76.066551,52.668777)" />
    <path
       style="fill:#ccffaa;fill-opacity:1;stroke:#ccffaa;stroke-width:1.42857146;stroke-linecap:round;stroke-linejoin:round;stroke-miterlimit:4;stroke-opacity:1;stroke-dasharray:none;stroke-dashoffset:0"
       d="m 329.90076,200.33165 c -0.75344,-1.2191 -0.73284,-1.22867 13.1273,-6.09682 6.97391,-2.44947 12.20451,-4.66826 12.20801,-5.17857 0.004,-0.49107 -0.14572,-0.89286 -0.33132,-0.89286 -0.1856,0 -6.19275,2.09036 -13.34923,4.64524 -7.15647,2.55488 -13.19212,4.37085 -13.41255,4.0355 -1.5918,-2.4218 -8.22201,-3.0327 -10.44465,-0.96236 -1.34764,1.25529 -3.48772,0.13377 -79.9913,-41.91971 -76.39393,-41.99321 -78.59872,-43.2634 -78.32566,-45.12389 0.36682,-2.49932 -1.60273,-6.24037 -3.81637,-7.24897 l -1.75135,-0.79797 0,-18.813921 0,-18.813918 228.57143,0 228.57143,0 0,7.51768 c 0,7.250475 -0.0602,7.540542 -1.69192,8.160942 -0.93055,0.353795 -2.41074,1.551197 -3.28932,2.660893 -1.33636,1.687898 -1.53634,2.619609 -1.2237,5.701167 l 0.37371,3.68354 -62.45845,52.030747 -62.45845,52.03075 -3.9286,-0.24962 c -2.6593,-0.16896 -4.45991,0.0985 -5.57302,0.82784 -1.56336,1.02436 -2.27335,0.72756 -14.40834,-6.02324 -7.02016,-3.90538 -13.22928,-6.92213 -13.79802,-6.70388 -0.56874,0.21825 -0.90772,0.52314 -0.75327,0.67755 0.15444,0.1544 5.9058,3.3893 12.7808,7.18865 6.875,3.79936 12.72769,7.12351 13.00598,7.387 0.27828,0.26349 0.23454,0.91825 -0.0972,1.45503 -0.86124,1.39352 -136.68104,2.20645 -137.53593,0.8232 l 0,0 z"
       id="path3113"
       inkscape:connector-curvature="0"
       transform="translate(-76.066551,52.668777)" />
    <rect
       style="fill:none;fill-opacity:1;stroke:#000000"
       id="rect2985"
       width="458.60925"
       height="226.27417"
       x="76.771591"
       y="114.94062" />
    <text
       xml:space="preserve"
       style="font-size:18px;font-style:normal;font-weight:normal;line-height:125%;letter-spacing:0px;word-spacing:0px;fill:#000000;fill-opacity:1;stroke:none;font-family:Bitstream Vera Sans"
       x="-43.186352"
       y="313.43817"
       id="text3761"
       sodipodi:linespacing="125%"><tspan
         sodipodi:role="line"
         id="tspan3763"
         x="-43.186352"
         y="313.43817">leftBottom</tspan></text>
    <text
       xml:space="preserve"
       style="font-size:18px;font-style:normal;font-weight:normal;line-height:125%;letter-spacing:0px;word-spacing:0px;fill:#000000;fill-opacity:1;stroke:none;font-family:Bitstream Vera Sans"
       x="-6.0819421"
       y="174.1212"
       id="text3765"
       sodipodi:linespacing="125%"><tspan
         sodipodi:role="line"
         x="-6.0819421"
         y="174.1212"
         id="tspan3785">leftTop</tspan></text>
    <text
       xml:space="preserve"
       style="font-size:18px;font-style:normal;font-weight:normal;line-height:125%;letter-spacing:0px;word-spacing:0px;fill:#000000;fill-opacity:1;stroke:none;font-family:Bitstream Vera Sans"
       x="545.6557"
       y="157.54034"
       id="text3769"
       sodipodi:linespacing="125%"><tspan
         sodipodi:role="line"
         id="tspan3771"
         x="545.6557"
         y="157.54034">rightTop</tspan></text>
    <text
       xml:space="preserve"
       style="font-size:18px;font-style:normal;font-weight:normal;line-height:125%;letter-spacing:0px;word-spacing:0px;fill:#000000;fill-opacity:1;stroke:none;font-family:Bitstream Vera Sans"
       x="546.66589"
       y="317.14444"
       id="text3773"
       sodipodi:linespacing="125%"><tspan
         sodipodi:role="line"
         id="tspan3775"
         x="546.66589"
         y="317.14444">rightBottom</tspan></text>
    <text
       xml:space="preserve"
       style="font-size:18px;font-style:normal;font-weight:normal;line-height:125%;letter-spacing:0px;word-spacing:0px;fill:#000000;fill-opacity:1;stroke:none;font-family:Bitstream Vera Sans"
       x="193.21397"
       y="213.39459"
       id="text3777"
       sodipodi:linespacing="125%"><tspan
         sodipodi:role="line"
         id="tspan3779"
         x="193.21397"
         y="213.39459">leftCenter</tspan></text>
    <text
       xml:space="preserve"
       style="font-size:18px;font-style:normal;font-weight:normal;line-height:125%;letter-spacing:0px;word-spacing:0px;fill:#000000;fill-opacity:1;stroke:none;font-family:Bitstream Vera Sans"
       x="-55.751244"
       y="130.8159"
       id="text3781"
       sodipodi:linespacing="125%"><tspan
         sodipodi:role="line"
         id="tspan3783"
         x="-55.751244"
         y="130.8159">leftTopLine</tspan></text>
    <text
       xml:space="preserve"
       style="font-size:18px;font-style:normal;font-weight:normal;line-height:125%;letter-spacing:0px;word-spacing:0px;fill:#000000;fill-opacity:1;stroke:none;font-family:Bitstream Vera Sans"
       x="517.70062"
       y="86.344559"
       id="text3789"
       sodipodi:linespacing="125%"><tspan
         sodipodi:role="line"
         id="tspan3791"
         x="517.70062"
         y="86.344559">rightTopLine</tspan></text>
    <text
       xml:space="preserve"
       style="font-size:18px;font-style:normal;font-weight:normal;line-height:125%;letter-spacing:0px;word-spacing:0px;fill:#000000;fill-opacity:1;stroke:none;font-family:Bitstream Vera Sans"
       x="-57.76284"
       y="364.57446"
       id="text3793"
       sodipodi:linespacing="125%"><tspan
         sodipodi:role="line"
         x="-57.76284"
         y="364.57446"
         id="tspan3099">leftBottomLine</tspan></text>
    <text
       xml:space="preserve"
       style="font-size:18px;font-style:normal;font-weight:normal;line-height:125%;letter-spacing:0px;word-spacing:0px;fill:#000000;fill-opacity:1;stroke:none;font-family:Bitstream Vera Sans"
       x="508.95587"
       y="377.74847"
       id="text3797"
       sodipodi:linespacing="125%"><tspan
         sodipodi:role="line"
         id="tspan3799"
         x="508.95587"
         y="377.74847">rightBottomLine</tspan></text>
    <text
       xml:space="preserve"
       style="font-size:18px;font-style:normal;font-weight:normal;line-height:125%;letter-spacing:0px;word-spacing:0px;fill:#000000;fill-opacity:1;stroke:none;font-family:Bitstream Vera Sans"
       x="264.50723"
       y="107.37004"
       id="text3801"
       sodipodi:linespacing="125%"><tspan
         sodipodi:role="line"
         id="tspan3803"
         x="264.50723"
         y="107.37004">plane Top</tspan></text>
    <text
       xml:space="preserve"
       style="font-size:18px;font-style:normal;font-weight:normal;line-height:125%;letter-spacing:0px;word-spacing:0px;fill:#000000;fill-opacity:1;stroke:none;font-family:Bitstream Vera Sans"
       x="94.497025"
       y="240.65219"
       id="text3805"
       sodipodi:linespacing="125%"><tspan
         sodipodi:role="line"
         id="tspan3807"
         x="94.497025"
         y="240.65219">plane </tspan><tspan
         sodipodi:role="line"
         x="94.497025"
         y="263.15219"
         id="tspan3119">Left</tspan></text>
    <text
       xml:space="preserve"
       style="font-size:18px;font-style:normal;font-weight:normal;line-height:125%;letter-spacing:0px;word-spacing:0px;fill:#000000;fill-opacity:1;stroke:none;font-family:Bitstream Vera Sans"
       x="256.39627"
       y="360.91833"
       id="text3809"
       sodipodi:linespacing="125%"><tspan
         sodipodi:role="line"
         id="tspan3811"
         x="256.39627"
         y="360.91833">plane Bottom</tspan></text>
    <text
       xml:space="preserve"
       style="font-size:18px;font-style:normal;font-weight:normal;line-height:125%;letter-spacing:0px;word-spacing:0px;fill:#000000;fill-opacity:1;stroke:none;font-family:Bitstream Vera Sans"
       x="468.08524"
       y="245.48759"
       id="text3813"
       sodipodi:linespacing="125%"><tspan
         sodipodi:role="line"
         id="tspan3815"
         x="468.08524"
         y="245.48759">plane </tspan><tspan
         sodipodi:role="line"
         x="468.08524"
         y="267.98761"
         id="tspan3817">Right</tspan></text>
    <text
       xml:space="preserve"
       style="font-size:18px;font-style:normal;font-weight:normal;line-height:125%;letter-spacing:0px;word-spacing:0px;fill:#000000;fill-opacity:1;stroke:none;font-family:Bitstream Vera Sans"
       x="340.41641"
       y="212.8811"
       id="text3777-1"
       sodipodi:linespacing="125%"><tspan
         sodipodi:role="line"
         id="tspan3779-7"
         x="340.41641"
         y="212.8811">rightCenter</tspan></text>
    <path
       style="fill:none;stroke:#000000;stroke-width:1px;stroke-linecap:butt;stroke-linejoin:miter;stroke-opacity:1"
       d="m 164.65487,189.74991 246.47722,-1.01015"
       id="path3041"
       inkscape:connector-curvature="0"
       transform="translate(34.162701,65.102402)"
       sodipodi:nodetypes="cc" />
    <path
       style="fill:none;stroke:#000000;stroke-width:1px;stroke-linecap:butt;stroke-linejoin:miter;stroke-opacity:1"
       d="M 11.111679,78.63313 244.45692,206.92251"
       id="path3043"
       inkscape:connector-curvature="0"
       transform="translate(34.162701,65.102402)"
       sodipodi:nodetypes="cc" />
    <path
       style="fill:none;stroke:#000000;stroke-width:1px;stroke-linecap:butt;stroke-linejoin:miter;stroke-opacity:1"
       d="M 8.0812207,261.47074 244.45691,176.61792"
       id="path3045"
       inkscape:connector-curvature="0"
       transform="translate(34.162701,65.102402)"
       sodipodi:nodetypes="cc" />
    <path
       style="fill:none;stroke:#000000;stroke-width:1px;stroke-linecap:butt;stroke-linejoin:miter;stroke-opacity:1"
       d="M 331.33004,216.01388 549.52299,34.186418"
       id="path3047"
       inkscape:connector-curvature="0"
       transform="translate(34.162701,65.102402)"
       sodipodi:nodetypes="cc" />
    <path
       style="fill:none;stroke:#000000;stroke-width:1px;stroke-linecap:butt;stroke-linejoin:miter;stroke-opacity:1"
       d="M 332.34018,170.55701 546.49253,288.74486"
       id="path3049"
       inkscape:connector-curvature="0"
       transform="translate(34.162701,65.102402)"
       sodipodi:nodetypes="cc" />
    <path
       sodipodi:type="arc"
       style="fill:#00ff00;fill-opacity:1;stroke:#000000;stroke-width:2;stroke-linecap:round;stroke-linejoin:round;stroke-miterlimit:4;stroke-opacity:1;stroke-dasharray:none;stroke-dashoffset:0"
       id="path3051"
       sodipodi:cx="20"
       sodipodi:cy="328.68179"
       sodipodi:rx="10"
       sodipodi:ry="9.2857141"
       d="m 30,328.68179 c 0,5.12836 -4.477153,9.28572 -10,9.28572 -5.522847,0 -10,-4.15736 -10,-9.28572 0,-5.12836 4.477153,-9.28571 10,-9.28571 5.522847,0 10,4.15735 10,9.28571 z"
       transform="matrix(0.67948637,0,0,0.73175456,62.367398,75.579055)" />
    <path
       sodipodi:type="arc"
       style="fill:#00ff00;fill-opacity:1;stroke:#000000;stroke-width:2;stroke-linecap:round;stroke-linejoin:round;stroke-miterlimit:4;stroke-opacity:1;stroke-dasharray:none;stroke-dashoffset:0"
       id="path3051-4"
       sodipodi:cx="20"
       sodipodi:cy="328.68179"
       sodipodi:rx="10"
       sodipodi:ry="9.2857141"
       d="m 30,328.68179 c 0,5.12836 -4.477153,9.28572 -10,9.28572 -5.522847,0 -10,-4.15736 -10,-9.28572 0,-5.12836 4.477153,-9.28571 10,-9.28571 5.522847,0 10,4.15735 10,9.28571 z"
       transform="matrix(0.67948637,0,0,0.73175456,61.989228,-79.606272)" />
    <path
       sodipodi:type="arc"
       style="fill:#00ff00;fill-opacity:1;stroke:#000000;stroke-width:2;stroke-linecap:round;stroke-linejoin:round;stroke-miterlimit:4;stroke-opacity:1;stroke-dasharray:none;stroke-dashoffset:0"
       id="path3051-0"
       sodipodi:cx="20"
       sodipodi:cy="328.68179"
       sodipodi:rx="10"
       sodipodi:ry="9.2857141"
       d="m 30,328.68179 c 0,5.12836 -4.477153,9.28572 -10,9.28572 -5.522847,0 -10,-4.15736 -10,-9.28572 0,-5.12836 4.477153,-9.28571 10,-9.28571 5.522847,0 10,4.15735 10,9.28571 z"
       transform="matrix(0.67948637,0,0,0.73175456,232.70501,14.337911)" />
    <path
       sodipodi:type="arc"
       style="fill:#00ff00;fill-opacity:1;stroke:#000000;stroke-width:2;stroke-linecap:round;stroke-linejoin:round;stroke-miterlimit:4;stroke-opacity:1;stroke-dasharray:none;stroke-dashoffset:0"
       id="path3051-9"
       sodipodi:cx="20"
       sodipodi:cy="328.68179"
       sodipodi:rx="10"
       sodipodi:ry="9.2857141"
       d="m 30,328.68179 c 0,5.12836 -4.477153,9.28572 -10,9.28572 -5.522847,0 -10,-4.15736 -10,-9.28572 0,-5.12836 4.477153,-9.28571 10,-9.28571 5.522847,0 10,4.15735 10,9.28571 z"
       transform="matrix(0.67948637,0,0,0.73175456,385.23805,14.337911)" />
    <path
       sodipodi:type="arc"
       style="fill:#00ff00;fill-opacity:1;stroke:#000000;stroke-width:2;stroke-linecap:round;stroke-linejoin:round;stroke-miterlimit:4;stroke-opacity:1;stroke-dasharray:none;stroke-dashoffset:0"
       id="path3051-48"
       sodipodi:cx="20"
       sodipodi:cy="328.68179"
       sodipodi:rx="10"
       sodipodi:ry="9.2857141"
       d="m 30,328.68179 c 0,5.12836 -4.477153,9.28572 -10,9.28572 -5.522847,0 -10,-4.15736 -10,-9.28572 0,-5.12836 4.477153,-9.28571 10,-9.28571 5.522847,0 10,4.15735 10,9.28571 z"
       transform="matrix(0.67948637,0,0,0.73175456,522.61879,-101.82963)" />
    <path
       sodipodi:type="arc"
       style="fill:#00ff00;fill-opacity:1;stroke:#000000;stroke-width:2;stroke-linecap:round;stroke-linejoin:round;stroke-miterlimit:4;stroke-opacity:1;stroke-dasharray:none;stroke-dashoffset:0"
       id="path3051-8"
       sodipodi:cx="20"
       sodipodi:cy="328.68179"
       sodipodi:rx="10"
       sodipodi:ry="9.2857141"
       d="m 30,328.68179 c 0,5.12836 -4.477153,9.28572 -10,9.28572 -5.522847,0 -10,-4.15736 -10,-9.28572 0,-5.12836 4.477153,-9.28571 10,-9.28571 5.522847,0 10,4.15735 10,9.28571 z"
       transform="matrix(0.67948637,0,0,0.73175456,521.10356,87.57397)" />
  </g>
</svg>
