# Blender v2.60 (sub 0) OBJ File: 'trees.blend'
# www.blender.org
mtllib treeA.mtl
o Tree_A_TreeA
v -0.056858 1.692897 -0.056805
v -0.112293 1.619116 -0.112239
v -0.176420 1.422079 -0.176367
v -0.210746 1.159339 -0.210693
v -0.210605 0.903175 -0.210552
v -0.180964 0.617981 -0.180911
v -0.116291 0.378825 -0.116238
v -0.059153 0.290116 -0.059100
v -0.000051 0.290116 -0.083580
v -0.000051 0.378825 -0.164386
v -0.000052 0.617981 -0.255847
v -0.000052 0.903175 -0.297766
v -0.000052 1.159339 -0.297966
v -0.000052 1.422079 -0.249421
v -0.000052 1.619116 -0.158731
v -0.000052 1.692897 -0.080335
v 0.056754 1.692897 -0.056805
v 0.112189 1.619116 -0.112239
v 0.176316 1.422079 -0.176367
v 0.210643 1.159339 -0.210693
v 0.210502 0.903175 -0.210552
v 0.180860 0.617981 -0.180910
v 0.116188 0.378825 -0.116237
v 0.059050 0.290116 -0.059099
v 0.083530 0.290116 0.000002
v 0.164335 0.378825 0.000002
v 0.255796 0.617981 0.000002
v 0.297716 0.903175 0.000002
v 0.297915 1.159339 0.000002
v 0.249370 1.422079 0.000002
v 0.158680 1.619116 0.000002
v 0.080284 1.692897 0.000001
v 0.056754 1.692897 0.056808
v 0.112188 1.619116 0.112242
v 0.176316 1.422079 0.176370
v 0.210642 1.159339 0.210696
v 0.210501 0.903175 0.210555
v 0.180860 0.617981 0.180914
v 0.116187 0.378825 0.116241
v 0.059049 0.290116 0.059103
v -0.000125 0.265210 -0.000071
v -0.000052 1.708732 0.000001
v -0.000053 0.290116 0.083583
v -0.000053 0.378825 0.164389
v -0.000053 0.617981 0.255850
v -0.000052 0.903175 0.297769
v -0.000052 1.159339 0.297968
v -0.000052 1.422079 0.249424
v -0.000052 1.619116 0.158734
v -0.000052 1.692897 0.080338
v -0.056858 1.692897 0.056808
v -0.112293 1.619116 0.112242
v -0.176420 1.422079 0.176369
v -0.210747 1.159339 0.210696
v -0.210606 0.903175 0.210555
v -0.180964 0.617981 0.180913
v -0.116292 0.378825 0.116240
v -0.059154 0.290116 0.059102
v -0.083634 0.290116 0.000001
v -0.164439 0.378825 0.000001
v -0.255900 0.617981 0.000001
v -0.297820 0.903175 0.000001
v -0.298019 1.159339 0.000001
v -0.249474 1.422079 0.000001
v -0.158784 1.619116 0.000001
v -0.080388 1.692897 0.000001
vt 0.627643 0.963260
vt 0.811107 0.943917
vt 0.930977 0.971962
vt 0.871491 0.884983
vt 1.012361 0.910828
vt 0.903795 0.728324
vt 1.035246 0.751852
vt 0.922129 0.451029
vt 1.045340 0.473093
vt 0.936767 0.254108
vt 1.052424 0.274946
vt 0.956801 0.142573
vt 1.061122 0.161660
vt 0.991689 0.079506
vt 1.074527 0.095355
vt 1.038003 0.052079
vt 1.090933 0.063214
vt 0.090933 0.063214
vt 0.038003 0.052079
vt 0.127500 0.036749
vt 0.994047 0.033372
vt 1.127500 0.036749
vt 0.893772 0.053663
vt 0.836458 0.114704
vt 0.812221 0.226047
vt 0.797565 0.423137
vt 0.781975 0.700922
vt 0.759783 0.858997
vt 0.728165 0.921879
vt 0.652361 0.910987
vt 0.659906 0.845090
vt 0.665734 0.684958
vt 0.670277 0.405750
vt 0.675032 0.207335
vt 0.684415 0.093825
vt 0.723612 0.027920
vt 1.018456 0.011649
vt 0.018456 0.011649
vt 0.267608 0.018648
vt 0.457225 0.035136
vt 0.515690 0.098717
vt 0.532803 0.211513
vt 0.541872 0.409545
vt 0.550746 0.688375
vt 0.562378 0.848006
vt 0.577714 0.913236
vt 0.500528 0.928224
vt 0.459880 0.866817
vt 0.433163 0.709519
vt 0.415507 0.432148
vt 0.399773 0.235351
vt 0.375517 0.124299
vt 0.325269 0.063109
vt 0.248452 0.040330
vt 0.199939 0.056802
vt 0.234895 0.086200
vt 0.262269 0.150492
vt 0.278892 0.262611
vt 0.291619 0.459894
vt 0.308400 0.737559
vt 0.340691 0.894603
vt 0.411564 0.953109
vt 0.247502 0.980115
vt 0.186319 0.915857
vt 0.173739 0.755927
vt 0.168491 0.476740
vt 0.164886 0.278291
vt 0.160531 0.164632
vt 0.153922 0.097744
vt 0.145909 0.064880
vt 0.074527 0.095355
vt 0.061122 0.161660
vt 0.052424 0.274946
vt 0.045340 0.473093
vt 0.035246 0.751852
vt 0.012361 0.910828
vt 1.247502 0.980115
vt 1.186319 0.915857
vn 0.000000 1.000000 0.000000
vn -0.359325 0.861232 -0.359325
vn -0.508194 0.861232 0.000000
vn -0.584552 0.562639 -0.584552
vn -0.826655 0.562639 0.000000
vn -0.675863 0.293832 -0.675863
vn -0.955840 0.293832 0.000000
vn -0.704306 0.088870 -0.704306
vn -0.996033 0.088870 0.000000
vn -0.705252 -0.072024 -0.705252
vn -0.997375 -0.072024 0.000000
vn -0.685263 -0.246529 -0.685263
vn -0.969115 -0.246529 0.000000
vn -0.610279 -0.505051 -0.610279
vn -0.863063 -0.505051 0.000000
vn -0.407514 -0.817194 -0.407544
vn -0.576312 -0.817194 0.000000
vn -0.000244 -0.999969 -0.000244
vn 0.000000 -0.817194 -0.576312
vn 0.000000 -0.505051 -0.863063
vn 0.000000 -0.246529 -0.969115
vn 0.000000 -0.072024 -0.997375
vn 0.000000 0.088870 -0.996033
vn 0.000000 0.293832 -0.955840
vn 0.000000 0.562639 -0.826655
vn 0.000000 0.861232 -0.508194
vn 0.359325 0.861232 -0.359325
vn 0.584552 0.562639 -0.584552
vn 0.675863 0.293832 -0.675863
vn 0.704306 0.088870 -0.704306
vn 0.705252 -0.072024 -0.705252
vn 0.685263 -0.246529 -0.685263
vn 0.610279 -0.505051 -0.610279
vn 0.407483 -0.817255 -0.407422
vn 0.576159 -0.817316 0.000000
vn 0.863063 -0.505051 0.000000
vn 0.969115 -0.246529 0.000000
vn 0.997375 -0.072024 0.000000
vn 0.996033 0.088870 0.000000
vn 0.955840 0.293832 0.000000
vn 0.826655 0.562639 0.000000
vn 0.508194 0.861232 0.000000
vn 0.359325 0.861232 0.359325
vn 0.584552 0.562670 0.584552
vn 0.675863 0.293832 0.675863
vn 0.704306 0.088870 0.704306
vn 0.705252 -0.072024 0.705252
vn 0.685263 -0.246529 0.685263
vn 0.610279 -0.505051 0.610279
vn 0.407361 -0.817347 0.407392
vn 0.000000 -0.817316 0.576159
vn 0.000000 -0.505051 0.863063
vn 0.000000 -0.246529 0.969115
vn 0.000000 -0.072024 0.997375
vn 0.000000 0.088870 0.996033
vn 0.000000 0.293832 0.955840
vn 0.000000 0.562670 0.826655
vn 0.000000 0.861232 0.508194
vn -0.359325 0.861232 0.359325
vn -0.584552 0.562670 0.584552
vn -0.675863 0.293832 0.675863
vn -0.704306 0.088870 0.704306
vn -0.705252 -0.072024 0.705252
vn -0.685263 -0.246529 0.685263
vn -0.610279 -0.505051 0.610279
vn -0.407453 -0.817255 0.407483
usemtl _tree.png
s 1
f 42/1/1 1/2/2 66/3/3
f 66/3/3 1/2/2 2/4/4
f 66/3/3 2/4/4 65/5/5
f 65/5/5 2/4/4 3/6/6
f 65/5/5 3/6/6 64/7/7
f 64/7/7 3/6/6 4/8/8
f 64/7/7 4/8/8 63/9/9
f 63/9/9 4/8/8 5/10/10
f 63/9/9 5/10/10 62/11/11
f 62/11/11 5/10/10 6/12/12
f 62/11/11 6/12/12 61/13/13
f 61/13/13 6/12/12 7/14/14
f 61/13/13 7/14/14 60/15/15
f 60/15/15 7/14/14 8/16/16
f 60/15/15 8/16/16 59/17/17
f 59/18/17 8/19/16 41/20/18
f 8/16/16 9/21/19 41/22/18
f 7/14/14 10/23/20 9/21/19
f 7/14/14 9/21/19 8/16/16
f 6/12/12 11/24/21 10/23/20
f 6/12/12 10/23/20 7/14/14
f 5/10/10 12/25/22 11/24/21
f 5/10/10 11/24/21 6/12/12
f 4/8/8 13/26/23 12/25/22
f 4/8/8 12/25/22 5/10/10
f 3/6/6 14/27/24 13/26/23
f 3/6/6 13/26/23 4/8/8
f 2/4/4 15/28/25 14/27/24
f 2/4/4 14/27/24 3/6/6
f 1/2/2 16/29/26 15/28/25
f 1/2/2 15/28/25 2/4/4
f 1/2/2 42/1/1 16/29/26
f 16/29/26 42/1/1 17/30/27
f 16/29/26 17/30/27 18/31/28
f 16/29/26 18/31/28 15/28/25
f 15/28/25 18/31/28 19/32/29
f 15/28/25 19/32/29 14/27/24
f 14/27/24 19/32/29 20/33/30
f 14/27/24 20/33/30 13/26/23
f 13/26/23 20/33/30 21/34/31
f 13/26/23 21/34/31 12/25/22
f 12/25/22 21/34/31 22/35/32
f 12/25/22 22/35/32 11/24/21
f 11/24/21 22/35/32 23/36/33
f 11/24/21 23/36/33 10/23/20
f 10/23/20 23/36/33 24/37/34
f 10/23/20 24/37/34 9/21/19
f 9/21/19 24/37/34 41/22/18
f 24/38/34 25/39/35 41/20/18
f 23/36/33 26/40/36 25/39/35
f 23/36/33 25/39/35 24/37/34
f 22/35/32 27/41/37 26/40/36
f 22/35/32 26/40/36 23/36/33
f 21/34/31 28/42/38 27/41/37
f 21/34/31 27/41/37 22/35/32
f 20/33/30 29/43/39 28/42/38
f 20/33/30 28/42/38 21/34/31
f 19/32/29 30/44/40 29/43/39
f 19/32/29 29/43/39 20/33/30
f 18/31/28 31/45/41 30/44/40
f 18/31/28 30/44/40 19/32/29
f 17/30/27 32/46/42 31/45/41
f 17/30/27 31/45/41 18/31/28
f 17/30/27 42/1/1 32/46/42
f 32/46/42 42/1/1 33/47/43
f 32/46/42 33/47/43 34/48/44
f 32/46/42 34/48/44 31/45/41
f 31/45/41 34/48/44 35/49/45
f 31/45/41 35/49/45 30/44/40
f 30/44/40 35/49/45 36/50/46
f 30/44/40 36/50/46 29/43/39
f 29/43/39 36/50/46 37/51/47
f 29/43/39 37/51/47 28/42/38
f 28/42/38 37/51/47 38/52/48
f 28/42/38 38/52/48 27/41/37
f 27/41/37 38/52/48 39/53/49
f 27/41/37 39/53/49 26/40/36
f 26/40/36 39/53/49 40/54/50
f 26/40/36 40/54/50 25/39/35
f 25/39/35 40/54/50 41/20/18
f 40/54/50 43/55/51 41/20/18
f 39/53/49 44/56/52 43/55/51
f 39/53/49 43/55/51 40/54/50
f 38/52/48 45/57/53 44/56/52
f 38/52/48 44/56/52 39/53/49
f 37/51/47 46/58/54 45/57/53
f 37/51/47 45/57/53 38/52/48
f 36/50/46 47/59/55 46/58/54
f 36/50/46 46/58/54 37/51/47
f 35/49/45 48/60/56 47/59/55
f 35/49/45 47/59/55 36/50/46
f 34/48/44 49/61/57 48/60/56
f 34/48/44 48/60/56 35/49/45
f 33/47/43 50/62/58 49/61/57
f 33/47/43 49/61/57 34/48/44
f 33/47/43 42/1/1 50/62/58
f 50/62/58 42/1/1 51/63/59
f 50/62/58 51/63/59 52/64/60
f 50/62/58 52/64/60 49/61/57
f 49/61/57 52/64/60 53/65/61
f 49/61/57 53/65/61 48/60/56
f 48/60/56 53/65/61 54/66/62
f 48/60/56 54/66/62 47/59/55
f 47/59/55 54/66/62 55/67/63
f 47/59/55 55/67/63 46/58/54
f 46/58/54 55/67/63 56/68/64
f 46/58/54 56/68/64 45/57/53
f 45/57/53 56/68/64 57/69/65
f 45/57/53 57/69/65 44/56/52
f 44/56/52 57/69/65 58/70/66
f 44/56/52 58/70/66 43/55/51
f 43/55/51 58/70/66 41/20/18
f 58/70/66 59/18/17 41/20/18
f 57/69/65 60/71/15 59/18/17
f 57/69/65 59/18/17 58/70/66
f 56/68/64 61/72/13 60/71/15
f 56/68/64 60/71/15 57/69/65
f 55/67/63 62/73/11 61/72/13
f 55/67/63 61/72/13 56/68/64
f 54/66/62 63/74/9 62/73/11
f 54/66/62 62/73/11 55/67/63
f 53/65/61 64/75/7 63/74/9
f 53/65/61 63/74/9 54/66/62
f 52/64/60 65/76/5 64/75/7
f 52/64/60 64/75/7 53/65/61
f 51/77/59 66/3/3 65/5/5
f 51/77/59 65/5/5 52/78/60
f 51/77/59 42/1/1 66/3/3
