# Blender v2.56 (sub 0) OBJ File: 'trees.blend'
# www.blender.org
mtllib treeA.mtl
o Tree_A_Circle.005
v -0.056858 1.692897 -0.056805
v -0.112293 1.619116 -0.112239
v -0.176420 1.422079 -0.176367
v -0.210746 1.159339 -0.210693
v -0.210605 0.903175 -0.210552
v -0.180964 0.617981 -0.180911
v -0.116291 0.378825 -0.116238
v -0.059153 0.290116 -0.059100
v -0.000051 0.290116 -0.083580
v -0.000051 0.378825 -0.164386
v -0.000052 0.617981 -0.255847
v -0.000052 0.903175 -0.297766
v -0.000052 1.159339 -0.297966
v -0.000052 1.422079 -0.249421
v -0.000052 1.619116 -0.158731
v -0.000052 1.692897 -0.080335
v 0.056754 1.692897 -0.056805
v 0.112189 1.619116 -0.112239
v 0.176316 1.422079 -0.176367
v 0.210643 1.159339 -0.210693
v 0.210502 0.903175 -0.210552
v 0.180860 0.617981 -0.180910
v 0.116188 0.378825 -0.116237
v 0.059050 0.290116 -0.059099
v 0.083530 0.290116 0.000002
v 0.164335 0.378825 0.000002
v 0.255796 0.617981 0.000002
v 0.297716 0.903175 0.000002
v 0.297915 1.159339 0.000002
v 0.249370 1.422079 0.000002
v 0.158680 1.619116 0.000001
v 0.080284 1.692897 0.000001
v 0.056754 1.692897 0.056808
v 0.112188 1.619116 0.112242
v 0.176316 1.422079 0.176370
v 0.210642 1.159339 0.210696
v 0.210501 0.903175 0.210555
v 0.180860 0.617981 0.180914
v 0.116187 0.378825 0.116241
v 0.059049 0.290116 0.059103
v -0.000125 0.265210 -0.000071
v -0.000052 1.708732 0.000001
v -0.000053 0.290116 0.083583
v -0.000053 0.378825 0.164389
v -0.000053 0.617981 0.255850
v -0.000052 0.903175 0.297769
v -0.000052 1.159339 0.297968
v -0.000052 1.422079 0.249424
v -0.000052 1.619116 0.158734
v -0.000052 1.692897 0.080338
v -0.056858 1.692897 0.056808
v -0.112293 1.619116 0.112242
v -0.176420 1.422079 0.176369
v -0.210747 1.159339 0.210696
v -0.210606 0.903175 0.210555
v -0.180964 0.617981 0.180913
v -0.116292 0.378825 0.116240
v -0.059154 0.290116 0.059102
v -0.083634 0.290116 0.000001
v -0.164439 0.378825 0.000001
v -0.255900 0.617981 0.000001
v -0.297820 0.903175 0.000001
v -0.298019 1.159339 0.000001
v -0.249474 1.422079 0.000001
v -0.158784 1.619116 0.000001
v -0.080388 1.692897 0.000001
vn 0.000000 1.000000 0.000000
vn -0.320048 0.891659 -0.320048
vn -0.452620 0.891659 0.000000
vn -0.572924 0.586047 -0.572924
vn -0.810236 0.586047 0.000000
vn -0.673879 0.302835 -0.673879
vn -0.953032 0.302835 0.000000
vn -0.704154 0.090945 -0.704154
vn -0.995849 0.090945 0.000000
vn -0.705191 -0.073336 -0.705191
vn -0.997284 -0.073336 0.000000
vn -0.684042 -0.253243 -0.684042
vn -0.967376 -0.253243 0.000000
vn -0.601184 -0.526414 -0.601184
vn -0.850215 -0.526414 0.000000
vn -0.372997 -0.849513 -0.373028
vn -0.527482 -0.849544 0.000000
vn -0.000122 -1.000000 -0.000122
vn 0.000000 -0.849544 -0.527482
vn 0.000000 -0.526414 -0.850215
vn 0.000000 -0.253243 -0.967376
vn 0.000000 -0.073336 -0.997284
vn 0.000000 0.090945 -0.995849
vn 0.000000 0.302835 -0.953032
vn 0.000000 0.586047 -0.810236
vn 0.000000 0.891659 -0.452620
vn 0.320048 0.891659 -0.320048
vn 0.572924 0.586047 -0.572924
vn 0.673879 0.302835 -0.673879
vn 0.704154 0.090945 -0.704154
vn 0.705191 -0.073336 -0.705191
vn 0.684042 -0.253243 -0.684042
vn 0.601184 -0.526414 -0.601184
vn 0.372906 -0.849605 -0.372936
vn 0.527268 -0.849666 0.000000
vn 0.850215 -0.526414 0.000000
vn 0.967376 -0.253243 0.000000
vn 0.997284 -0.073336 0.000000
vn 0.995849 0.090945 0.000000
vn 0.953032 0.302835 0.000000
vn 0.810236 0.586047 0.000000
vn 0.452620 0.891659 0.000000
vn 0.320048 0.891659 0.320048
vn 0.572924 0.586047 0.572924
vn 0.673879 0.302835 0.673879
vn 0.704154 0.090945 0.704154
vn 0.705191 -0.073336 0.705191
vn 0.684042 -0.253243 0.684042
vn 0.601184 -0.526414 0.601184
vn 0.372814 -0.849696 0.372814
vn 0.000000 -0.849666 0.527268
vn 0.000000 -0.526414 0.850215
vn 0.000000 -0.253243 0.967376
vn 0.000000 -0.073336 0.997284
vn 0.000000 0.090945 0.995849
vn 0.000000 0.302835 0.953032
vn 0.000000 0.586047 0.810236
vn 0.000000 0.891659 0.452620
vn -0.320048 0.891659 0.320048
vn -0.572924 0.586047 0.572924
vn -0.673879 0.302835 0.673879
vn -0.704154 0.090945 0.704154
vn -0.705191 -0.073336 0.705191
vn -0.684042 -0.253243 0.684042
vn -0.601184 -0.526414 0.601184
vn -0.372936 -0.849605 0.372875
usemtl Zielony
s 1
f 42//1 1//2 66//3
f 66//3 1//2 2//4 65//5
f 65//5 2//4 3//6 64//7
f 64//7 3//6 4//8 63//9
f 63//9 4//8 5//10 62//11
f 62//11 5//10 6//12 61//13
f 61//13 6//12 7//14 60//15
f 60//15 7//14 8//16 59//17
f 59//17 8//16 41//18
f 8//16 9//19 41//18
f 7//14 10//20 9//19 8//16
f 6//12 11//21 10//20 7//14
f 5//10 12//22 11//21 6//12
f 4//8 13//23 12//22 5//10
f 3//6 14//24 13//23 4//8
f 2//4 15//25 14//24 3//6
f 1//2 16//26 15//25 2//4
f 1//2 42//1 16//26
f 16//26 42//1 17//27
f 16//26 17//27 18//28 15//25
f 15//25 18//28 19//29 14//24
f 14//24 19//29 20//30 13//23
f 13//23 20//30 21//31 12//22
f 12//22 21//31 22//32 11//21
f 11//21 22//32 23//33 10//20
f 10//20 23//33 24//34 9//19
f 9//19 24//34 41//18
f 24//34 25//35 41//18
f 23//33 26//36 25//35 24//34
f 22//32 27//37 26//36 23//33
f 21//31 28//38 27//37 22//32
f 20//30 29//39 28//38 21//31
f 19//29 30//40 29//39 20//30
f 18//28 31//41 30//40 19//29
f 17//27 32//42 31//41 18//28
f 17//27 42//1 32//42
f 32//42 42//1 33//43
f 32//42 33//43 34//44 31//41
f 31//41 34//44 35//45 30//40
f 30//40 35//45 36//46 29//39
f 29//39 36//46 37//47 28//38
f 28//38 37//47 38//48 27//37
f 27//37 38//48 39//49 26//36
f 26//36 39//49 40//50 25//35
f 25//35 40//50 41//18
f 40//50 43//51 41//18
f 39//49 44//52 43//51 40//50
f 38//48 45//53 44//52 39//49
f 37//47 46//54 45//53 38//48
f 36//46 47//55 46//54 37//47
f 35//45 48//56 47//55 36//46
f 34//44 49//57 48//56 35//45
f 33//43 50//58 49//57 34//44
f 33//43 42//1 50//58
f 50//58 42//1 51//59
f 50//58 51//59 52//60 49//57
f 49//57 52//60 53//61 48//56
f 48//56 53//61 54//62 47//55
f 47//55 54//62 55//63 46//54
f 46//54 55//63 56//64 45//53
f 45//53 56//64 57//65 44//52
f 44//52 57//65 58//66 43//51
f 43//51 58//66 41//18
f 58//66 59//17 41//18
f 57//65 60//15 59//17 58//66
f 56//64 61//13 60//15 57//65
f 55//63 62//11 61//13 56//64
f 54//62 63//9 62//11 55//63
f 53//61 64//7 63//9 54//62
f 52//60 65//5 64//7 53//61
f 51//59 66//3 65//5 52//60
f 51//59 42//1 66//3
