# Blender v2.60 (sub 0) OBJ File: 'trees.blend'
# www.blender.org
mtllib treeE.mtl
o trunk
v -0.003717 -0.043092 -0.019798
v 0.013430 -0.043092 -0.009898
v 0.013430 -0.043092 0.009901
v -0.003717 -0.043092 0.019801
v -0.020865 -0.043092 0.009901
v -0.020865 -0.043092 -0.009898
v -0.003717 0.527242 -0.019798
v 0.013430 0.527242 -0.009898
v 0.013430 0.527242 0.009901
v -0.003717 0.527242 0.019801
v -0.020865 0.527242 0.009901
v -0.020865 0.527242 -0.009898
v -0.003717 -0.043092 0.000001
v -0.003717 0.527242 0.000001
vn 0.000000 -1.000000 0.000000
vn 0.000000 -0.609973 -0.792383
vn 0.686239 -0.609973 -0.396191
vn 0.000000 1.000000 0.000000
vn 0.686239 0.609973 -0.396191
vn 0.000000 0.609973 -0.792383
vn 0.686239 -0.609973 0.396191
vn 0.686239 0.609973 0.396191
vn 0.000000 -0.609973 0.792383
vn 0.000000 0.609973 0.792383
vn -0.686239 -0.609973 0.396191
vn -0.686239 0.609973 0.396191
vn -0.686239 -0.609973 -0.396191
vn -0.686239 0.609973 -0.396191
usemtl Pien
s 1
f 13//1 1//2 2//3
f 14//4 8//5 7//6
f 13//1 2//3 3//7
f 14//4 9//8 8//5
f 13//1 3//7 4//9
f 14//4 10//10 9//8
f 13//1 4//9 5//11
f 14//4 11//12 10//10
f 13//1 5//11 6//13
f 14//4 12//14 11//12
f 6//13 1//2 13//1
f 14//4 7//6 12//14
f 1//2 7//6 8//5
f 1//2 8//5 2//3
f 2//3 8//5 9//8
f 2//3 9//8 3//7
f 3//7 9//8 10//10
f 3//7 10//10 4//9
f 4//9 10//10 11//12
f 4//9 11//12 5//11
f 5//11 11//12 12//14
f 5//11 12//14 6//13
f 7//6 1//2 6//13
f 7//6 6//13 12//14
o Tree_E_TreeE
v -0.049031 1.452334 -0.048836
v -0.177725 1.241637 -0.177530
v -0.270316 0.992640 -0.270122
v -0.290472 0.871074 -0.290277
v -0.273617 0.713945 -0.273423
v -0.214397 0.577409 -0.214203
v -0.137980 0.493275 -0.137786
v -0.000193 0.493275 -0.194859
v -0.000193 0.577409 -0.302929
v -0.000193 0.713945 -0.386679
v -0.000193 0.871074 -0.410515
v -0.000193 0.992640 -0.382011
v -0.000193 1.241637 -0.251067
v -0.000193 1.452334 -0.069066
v 0.048645 1.452334 -0.048837
v 0.177339 1.241637 -0.177531
v 0.269931 0.992640 -0.270122
v 0.290086 0.871074 -0.290278
v 0.273232 0.713945 -0.273423
v 0.214011 0.577409 -0.214203
v 0.137595 0.493275 -0.137786
v 0.194668 0.493275 0.000001
v 0.302738 0.577409 0.000001
v 0.386488 0.713945 0.000001
v 0.410324 0.871074 0.000001
v 0.381820 0.992640 0.000001
v 0.250876 1.241637 0.000001
v 0.068875 1.452334 0.000001
v 0.048646 1.452334 0.048839
v 0.177340 1.241637 0.177533
v 0.269931 0.992640 0.270125
v 0.290087 0.871074 0.290280
v 0.273232 0.713945 0.273426
v 0.214012 0.577409 0.214205
v 0.137595 0.493275 0.137789
v -0.000192 0.451976 0.000001
v -0.000328 1.472102 -0.000135
v -0.000192 0.493275 0.194862
v -0.000192 0.577409 0.302932
v -0.000192 0.713945 0.386682
v -0.000192 0.871074 0.410518
v -0.000192 0.992640 0.382014
v -0.000192 1.241637 0.251070
v -0.000192 1.452334 0.069069
v -0.049030 1.452334 0.048840
v -0.177724 1.241637 0.177534
v -0.270316 0.992640 0.270125
v -0.290471 0.871074 0.290281
v -0.273617 0.713945 0.273426
v -0.214397 0.577409 0.214206
v -0.137980 0.493275 0.137789
v -0.195053 0.493275 0.000001
v -0.303123 0.577409 0.000002
v -0.386873 0.713945 0.000002
v -0.410709 0.871074 0.000002
v -0.382205 0.992640 0.000002
v -0.251261 1.241637 0.000002
v -0.069260 1.452334 0.000002
vt 0.500327 0.922096
vt 0.571480 0.917360
vt 0.568083 0.944542
vt 0.702868 0.814587
vt 0.830184 0.873389
vt 0.748010 0.625486
vt 0.875425 0.680262
vt 0.760554 0.531759
vt 0.884547 0.584900
vt 0.775891 0.411151
vt 0.894408 0.462092
vt 0.795727 0.288749
vt 0.905574 0.336564
vt 0.825914 0.186212
vt 0.920247 0.228773
vt 0.999790 0.078108
vt 0.710731 0.127348
vt 0.671247 0.229831
vt 0.651700 0.353467
vt 0.639054 0.475502
vt 0.629936 0.570629
vt 0.603200 0.765982
vt 0.542939 0.895635
vt 0.504580 0.886556
vt 0.510382 0.745245
vt 0.513190 0.544879
vt 0.514233 0.448033
vt 0.515787 0.323614
vt 0.518512 0.196303
vt 0.526071 0.086306
vt 1.322472 0.114382
vt 0.360573 0.218426
vt 0.322472 0.114382
vt 0.377909 0.343082
vt 0.388703 0.465859
vt 0.396319 0.561547
vt 0.418012 0.758578
vt 0.465412 0.892380
vt 0.433547 0.911690
vt 0.320845 0.802047
vt 0.278981 0.612025
vt 0.266677 0.518175
vt 0.251176 0.397527
vt 0.230351 0.275298
vt 0.197018 0.173538
vt 1.197018 0.173538
vt 1.100127 0.221398
vt 0.118463 0.328061
vt 0.100127 0.221398
vt 0.132081 0.452833
vt 0.143816 0.575043
vt 0.154404 0.669893
vt 0.202941 0.861010
vt 0.426345 0.938710
vt 0.488474 0.957470
vt 0.023984 0.900328
vt 0.016028 0.700147
vt 0.014709 0.603369
vt 0.013342 0.479028
vt 0.011850 0.351766
vt 0.009956 0.241695
vt 1.009956 0.241695
vt 1.011850 0.351766
vt 1.013342 0.479028
vt 1.014709 0.603369
vt 1.016028 0.700147
vt 1.023984 0.900328
vn -0.000549 0.999969 -0.000549
vn -0.413831 0.810816 -0.413831
vn -0.585192 0.810877 0.000031
vn -0.590258 0.550584 -0.590258
vn -0.834773 0.550584 0.000000
vn -0.664968 0.339915 -0.664968
vn -0.940428 0.339915 0.000000
vn -0.706565 0.038148 -0.706565
vn -0.999268 0.038148 0.000000
vn -0.667837 -0.328532 -0.667837
vn -0.944456 -0.328532 0.000000
vn -0.539994 -0.645589 -0.539994
vn -0.763665 -0.645589 0.000000
vn -0.329020 -0.885128 -0.329020
vn -0.465285 -0.885128 0.000000
vn 0.000000 -0.885128 -0.465285
vn 0.000000 -0.645589 -0.763665
vn 0.000000 -0.328532 -0.944456
vn 0.000000 0.038148 -0.999268
vn 0.000000 0.339915 -0.940428
vn 0.000000 0.550584 -0.834773
vn 0.000031 0.810877 -0.585192
vn 0.413709 0.810999 -0.413617
vn 0.590258 0.550584 -0.590258
vn 0.664968 0.339915 -0.664968
vn 0.706565 0.038148 -0.706565
vn 0.667837 -0.328532 -0.667837
vn 0.539994 -0.645589 -0.539994
vn 0.329020 -0.885128 -0.329020
vn 0.465285 -0.885128 0.000000
vn 0.763665 -0.645589 0.000000
vn 0.944456 -0.328532 0.000000
vn 0.999268 0.038148 0.000000
vn 0.940428 0.339915 0.000000
vn 0.834773 0.550584 0.000000
vn 0.584857 0.811121 0.000031
vn 0.413495 0.811151 0.413495
vn 0.590258 0.550584 0.590258
vn 0.664968 0.339915 0.664968
vn 0.706565 0.038148 0.706565
vn 0.667837 -0.328532 0.667837
vn 0.539994 -0.645589 0.539994
vn 0.329020 -0.885128 0.329020
vn 0.000000 -0.885128 0.465285
vn 0.000000 -0.645589 0.763665
vn 0.000000 -0.328532 0.944456
vn 0.000000 0.038148 0.999268
vn 0.000000 0.339915 0.940428
vn 0.000000 0.550584 0.834773
vn 0.000031 0.811121 0.584857
vn -0.413617 0.810999 0.413709
vn -0.590258 0.550584 0.590258
vn -0.664968 0.339915 0.664968
vn -0.706565 0.038148 0.706565
vn -0.667837 -0.328532 0.667837
vn -0.539994 -0.645589 0.539994
vn -0.329020 -0.885128 0.329020
usemtl None_tree.png
s 1
f 51/1/15 15/2/16 72/3/17
f 72/3/17 15/2/16 16/4/18
f 72/3/17 16/4/18 71/5/19
f 71/5/19 16/4/18 17/6/20
f 71/5/19 17/6/20 70/7/21
f 70/7/21 17/6/20 18/8/22
f 70/7/21 18/8/22 69/9/23
f 69/9/23 18/8/22 19/10/24
f 69/9/23 19/10/24 68/11/25
f 68/11/25 19/10/24 20/12/26
f 68/11/25 20/12/26 67/13/27
f 67/13/27 20/12/26 21/14/28
f 67/13/27 21/14/28 66/15/29
f 66/15/29 21/14/28 50/16/1
f 21/14/28 22/17/30 50/16/1
f 20/12/26 23/18/31 22/17/30
f 20/12/26 22/17/30 21/14/28
f 19/10/24 24/19/32 23/18/31
f 19/10/24 23/18/31 20/12/26
f 18/8/22 25/20/33 24/19/32
f 18/8/22 24/19/32 19/10/24
f 17/6/20 26/21/34 25/20/33
f 17/6/20 25/20/33 18/8/22
f 16/4/18 27/22/35 26/21/34
f 16/4/18 26/21/34 17/6/20
f 15/2/16 28/23/36 27/22/35
f 15/2/16 27/22/35 16/4/18
f 15/2/16 51/1/15 28/23/36
f 28/23/36 51/1/15 29/24/37
f 28/23/36 29/24/37 30/25/38
f 28/23/36 30/25/38 27/22/35
f 27/22/35 30/25/38 31/26/39
f 27/22/35 31/26/39 26/21/34
f 26/21/34 31/26/39 32/27/40
f 26/21/34 32/27/40 25/20/33
f 25/20/33 32/27/40 33/28/41
f 25/20/33 33/28/41 24/19/32
f 24/19/32 33/28/41 34/29/42
f 24/19/32 34/29/42 23/18/31
f 23/18/31 34/29/42 35/30/43
f 23/18/31 35/30/43 22/17/30
f 22/17/30 35/30/43 50/16/1
f 35/30/43 36/31/44 50/16/1
f 34/29/42 37/32/45 36/33/44
f 34/29/42 36/33/44 35/30/43
f 33/28/41 38/34/46 37/32/45
f 33/28/41 37/32/45 34/29/42
f 32/27/40 39/35/47 38/34/46
f 32/27/40 38/34/46 33/28/41
f 31/26/39 40/36/48 39/35/47
f 31/26/39 39/35/47 32/27/40
f 30/25/38 41/37/49 40/36/48
f 30/25/38 40/36/48 31/26/39
f 29/24/37 42/38/50 41/37/49
f 29/24/37 41/37/49 30/25/38
f 29/24/37 51/1/15 42/38/50
f 42/38/50 51/1/15 43/39/51
f 42/38/50 43/39/51 44/40/52
f 42/38/50 44/40/52 41/37/49
f 41/37/49 44/40/52 45/41/53
f 41/37/49 45/41/53 40/36/48
f 40/36/48 45/41/53 46/42/54
f 40/36/48 46/42/54 39/35/47
f 39/35/47 46/42/54 47/43/55
f 39/35/47 47/43/55 38/34/46
f 38/34/46 47/43/55 48/44/56
f 38/34/46 48/44/56 37/32/45
f 37/32/45 48/44/56 49/45/57
f 37/32/45 49/45/57 36/33/44
f 36/31/44 49/46/57 50/16/1
f 49/46/57 52/47/58 50/16/1
f 48/44/56 53/48/59 52/49/58
f 48/44/56 52/49/58 49/45/57
f 47/43/55 54/50/60 53/48/59
f 47/43/55 53/48/59 48/44/56
f 46/42/54 55/51/61 54/50/60
f 46/42/54 54/50/60 47/43/55
f 45/41/53 56/52/62 55/51/61
f 45/41/53 55/51/61 46/42/54
f 44/40/52 57/53/63 56/52/62
f 44/40/52 56/52/62 45/41/53
f 43/39/51 58/54/64 57/53/63
f 43/39/51 57/53/63 44/40/52
f 43/39/51 51/1/15 58/54/64
f 58/54/64 51/1/15 59/55/65
f 58/54/64 59/55/65 60/56/66
f 58/54/64 60/56/66 57/53/63
f 57/53/63 60/56/66 61/57/67
f 57/53/63 61/57/67 56/52/62
f 56/52/62 61/57/67 62/58/68
f 56/52/62 62/58/68 55/51/61
f 55/51/61 62/58/68 63/59/69
f 55/51/61 63/59/69 54/50/60
f 54/50/60 63/59/69 64/60/70
f 54/50/60 64/60/70 53/48/59
f 53/48/59 64/60/70 65/61/71
f 53/48/59 65/61/71 52/49/58
f 52/47/58 65/62/71 50/16/1
f 65/62/71 66/15/29 50/16/1
f 64/63/70 67/13/27 66/15/29
f 64/63/70 66/15/29 65/62/71
f 63/64/69 68/11/25 67/13/27
f 63/64/69 67/13/27 64/63/70
f 62/65/68 69/9/23 68/11/25
f 62/65/68 68/11/25 63/64/69
f 61/66/67 70/7/21 69/9/23
f 61/66/67 69/9/23 62/65/68
f 60/67/66 71/5/19 70/7/21
f 60/67/66 70/7/21 61/66/67
f 59/55/65 72/3/17 71/5/19
f 59/55/65 71/5/19 60/67/66
f 59/55/65 51/1/15 72/3/17
